# File created by Blade
# Date/Time:  Tue Apr 07 20:49:23 2015
# Frame Rate: 120.000 fps
#------------------------------------------------------
:FULLY-SPECIFIED
:DEGREES
223
root 2.729811 33.002335 -7.339974 -42.250566 83.971278 -66.650266
Spine -10.125569 -8.377933 3.538466
Head -0.012079 1.755603 9.256602
LeftShoulder -19.077552 45.192586 12.506742
LeftArm 51.014096 -4.489492 -87.892950
LeftForeArm 9.005185 -0.000000 33.136973
LeftHand 5.072084 -0.000000 11.164939
LeftHandThumb1 -26.253704 0.000000 33.147579
RightShoulder -9.974473 -11.586956 -13.162579
RightArm 1.886323 12.336043 86.157675
RightForeArm 27.446128 -0.000000 7.756954
RightHand 6.696307 -0.000000 2.637269
RightHandThumb1 -24.326973 -0.000000 -32.862282
LeftUpLeg -29.323053 -4.986014 4.381050
LeftLeg 11.578655 -0.000000 -0.000000
LeftFoot -5.869779 13.855040 -9.240965
LeftToeBase -12.285895 -0.000000 0.000000
RightUpLeg -30.999142 -9.411436 -2.153062
RightLeg 59.715622 -0.000000 -0.000000
RightFoot -0.085894 -7.810519 14.139694
RightToeBase -6.150469 -0.000000 0.000000
224
root 2.770554 33.016808 -7.374442 -43.623065 83.816363 -68.092358
Spine -10.234677 -8.591110 3.816912
Head 0.136393 1.909216 9.230848
LeftShoulder -19.050017 45.248655 12.551514
LeftArm 51.029133 -4.612207 -87.808491
LeftForeArm 8.973364 -0.000000 33.274917
LeftHand 5.064715 -0.000000 11.254460
LeftHandThumb1 -26.253704 0.000000 33.147579
RightShoulder -10.102792 -11.792185 -13.187209
RightArm 1.721380 12.650475 86.230470
RightForeArm 28.025735 -0.000000 7.442013
RightHand 6.350911 -0.000000 1.969828
RightHandThumb1 -24.326973 -0.000000 -32.862282
LeftUpLeg -29.318650 -4.960678 4.515235
LeftLeg 11.569533 -0.000000 -0.000000
LeftFoot -5.820292 13.869811 -9.059565
LeftToeBase -12.450355 -0.000000 0.000000
RightUpLeg -31.321148 -9.085695 -2.494909
RightLeg 62.298564 -0.000000 -0.000000
RightFoot 1.378260 -7.270031 13.190889
RightToeBase -6.011279 -0.000000 0.000000
225
root 2.813509 33.031237 -7.404269 -45.475996 83.647734 -70.011110
Spine -10.362218 -8.881176 4.162556
Head 0.326262 2.094808 9.188461
LeftShoulder -19.064212 45.311864 12.565675
LeftArm 51.025028 -4.774038 -87.791256
LeftForeArm 8.964584 -0.000000 33.377573
LeftHand 5.092970 -0.000000 11.216341
LeftHandThumb1 -26.253704 0.000000 33.147579
RightShoulder -10.171439 -11.990511 -13.223384
RightArm 1.527980 12.895400 86.278772
RightForeArm 28.743652 -0.000000 7.169542
RightHand 6.371826 -0.000000 1.866940
RightHandThumb1 -24.326973 -0.000000 -32.862282
LeftUpLeg -29.286110 -5.002207 4.710635
LeftLeg 11.518593 -0.000000 -0.000000
LeftFoot -5.776204 13.955219 -8.830488
LeftToeBase -12.593843 -0.000000 0.000000
RightUpLeg -31.586178 -8.766518 -2.796699
RightLeg 64.866492 -0.000000 -0.000000
RightFoot 2.918940 -6.735035 12.171098
RightToeBase -5.741536 -0.000000 0.000000
226
root 2.857525 33.045078 -7.435081 -47.198862 83.470023 -71.724677
Spine -10.441400 -9.202038 4.500393
Head 0.616921 2.311578 9.155529
LeftShoulder -19.033217 45.412965 12.604545
LeftArm 50.997899 -4.974467 -87.832331
LeftForeArm 8.998593 -0.000000 33.518369
LeftHand 5.100662 -0.000000 11.154206
LeftHandThumb1 -26.253704 0.000000 33.147579
RightShoulder -10.139025 -12.164953 -13.280046
RightArm 1.316215 13.150194 86.314072
RightForeArm 29.566033 -0.000000 6.870979
RightHand 6.409357 -0.000000 1.954959
RightHandThumb1 -24.326973 -0.000000 -32.862282
LeftUpLeg -29.140039 -5.086749 4.899727
LeftLeg 11.393905 -0.000000 -0.000000
LeftFoot -5.724572 14.109284 -8.547209
LeftToeBase -12.669376 -0.000000 0.000000
RightUpLeg -31.740924 -8.368456 -3.147065
RightLeg 67.403685 -0.000000 -0.000000
RightFoot 4.536296 -6.211019 11.274170
RightToeBase -5.088007 -0.000000 0.000000
227
root 2.900252 33.058521 -7.465146 -48.765860 83.293906 -73.344704
Spine -10.565987 -9.473646 4.845537
Head 0.793524 2.474337 9.088328
LeftShoulder -19.043904 45.459357 12.600180
LeftArm 50.980621 -5.137267 -87.823625
LeftForeArm 9.060408 0.000000 33.601706
LeftHand 5.223376 -0.000000 11.071738
LeftHandThumb1 -26.253704 0.000000 33.147579
RightShoulder -10.233036 -12.382723 -13.309872
RightArm 1.145253 13.408741 86.347933
RightForeArm 30.286530 -0.000000 6.665961
RightHand 6.523080 -0.000000 2.296350
RightHandThumb1 -24.326973 -0.000000 -32.862282
LeftUpLeg -29.035542 -5.233365 5.113374
LeftLeg 11.218334 -0.000000 -0.000000
LeftFoot -5.671681 14.366009 -8.233694
LeftToeBase -12.725234 -0.000000 0.000000
RightUpLeg -31.908531 -8.013397 -3.507015
RightLeg 69.894679 -0.000000 -0.000000
RightFoot 6.135385 -5.639809 10.467012
RightToeBase -3.668488 -0.000000 0.000000
228
root 2.944877 33.071422 -7.496024 -50.238668 83.111049 -74.870839
Spine -10.700312 -9.760518 5.203928
Head 0.957579 2.623259 9.039970
LeftShoulder -19.075035 45.493774 12.585652
LeftArm 50.907967 -5.294815 -87.820469
LeftForeArm 9.073580 0.000000 33.734763
LeftHand 5.222700 -0.000000 11.073680
LeftHandThumb1 -26.253704 0.000000 33.147579
RightShoulder -10.311063 -12.504787 -13.364943
RightArm 0.906477 13.643443 86.348060
RightForeArm 31.363584 -0.000000 6.428686
RightHand 6.765703 -0.000000 3.178476
RightHandThumb1 -24.326973 -0.000000 -32.862282
LeftUpLeg -28.910557 -5.433069 5.347446
LeftLeg 11.009110 -0.000000 -0.000000
LeftFoot -5.648834 14.659938 -7.894734
LeftToeBase -12.683078 -0.000000 0.000000
RightUpLeg -32.029852 -7.614554 -3.899039
RightLeg 72.324129 -0.000000 -0.000000
RightFoot 7.738400 -5.047076 9.863223
RightToeBase -1.695765 -0.000000 0.000000
229
root 2.993183 33.083394 -7.522681 -51.479671 82.912272 -76.175771
Spine -10.835689 -10.031917 5.554594
Head 1.052093 2.819817 9.014193
LeftShoulder -19.193596 45.492897 12.514298
LeftArm 50.830921 -5.431508 -87.801518
LeftForeArm 9.037016 -0.000000 33.839680
LeftHand 5.148766 -0.000000 11.381506
LeftHandThumb1 -26.253704 0.000000 33.147579
RightShoulder -10.460531 -12.662573 -13.338116
RightArm 0.729567 13.780339 86.298836
RightForeArm 32.688375 -0.000000 6.263565
RightHand 6.164564 -0.000000 3.325258
RightHandThumb1 -24.326973 -0.000000 -32.862282
LeftUpLeg -28.772914 -5.628091 5.597615
LeftLeg 10.777342 -0.000000 -0.000000
LeftFoot -5.641710 14.954738 -7.699081
LeftToeBase -12.730642 -0.000000 0.000000
RightUpLeg -32.112527 -7.137313 -4.309533
RightLeg 74.665669 -0.000000 -0.000000
RightFoot 9.397222 -4.469668 9.478516
RightToeBase 0.271192 -0.000000 -0.000000
230
root 3.034276 33.095415 -7.548926 -52.900159 82.686392 -77.641546
Spine -10.988013 -10.310453 5.955666
Head 1.286104 2.972455 8.960786
LeftShoulder -19.212062 45.635628 12.479141
LeftArm 50.857339 -5.601150 -87.856152
LeftForeArm 8.998749 -0.000000 33.941599
LeftHand 5.066598 -0.000000 11.670988
LeftHandThumb1 -26.253704 0.000000 33.147579
RightShoulder -10.497088 -12.824004 -13.347047
RightArm 0.460060 14.191612 86.248192
RightForeArm 33.635873 0.000000 6.121161
RightHand 6.066403 -0.000000 3.300165
RightHandThumb1 -24.326973 -0.000000 -32.862282
LeftUpLeg -28.650240 -5.854945 5.904987
LeftLeg 10.590794 -0.000000 -0.000000
LeftFoot -5.655031 15.219341 -7.503866
LeftToeBase -12.726885 -0.000000 0.000000
RightUpLeg -32.150558 -6.659779 -4.696122
RightLeg 76.924724 -0.000000 -0.000000
RightFoot 11.269513 -3.839799 8.737533
RightToeBase 0.730170 -0.000000 -0.000000
231
root 3.080590 33.103559 -7.578847 -53.741845 82.506096 -78.520878
Spine -11.125294 -10.554037 6.264566
Head 1.424141 3.114344 8.939251
LeftShoulder -19.249430 45.659408 12.486372
LeftArm 50.777747 -5.747216 -87.910358
LeftForeArm 8.984855 -0.000000 34.002538
LeftHand 5.253231 -0.000000 11.345148
LeftHandThumb1 -26.253704 0.000000 33.147579
RightShoulder -10.634469 -13.031555 -13.317384
RightArm 0.346876 14.437385 86.190289
RightForeArm 34.557104 -0.000000 5.754015
RightHand 6.054701 -0.000000 3.026372
RightHandThumb1 -24.326973 -0.000000 -32.862282
LeftUpLeg -28.499776 -6.082376 6.138720
LeftLeg 10.383997 -0.000000 -0.000000
LeftFoot -5.679125 15.501325 -7.307925
LeftToeBase -12.706375 -0.000000 0.000000
RightUpLeg -32.126821 -6.074985 -5.190486
RightLeg 79.085280 -0.000000 -0.000000
RightFoot 13.182144 -3.102855 7.967941
RightToeBase 0.851003 -0.000000 -0.000000
